_________________________  Visit us at _________________________
  
http://p2pdl.com  ____________________________  http://p2pdl.com


A Haunted House 2013 BRRip 720p x264 AAC - PRiSTiNE [P2PDL]

Genre: Comedy | Horror
Plot: Malcolm and Kisha move into their dream 
home, but soon learn a demon also resides there. 
When Kisha becomes possessed, Malcolm - determined 
to keep his sex life on track - turns to a priest, 
a psychic, and a team of ghost-busters for help.
Director: Michael Tiddes
Stars:  Marlon Wayans, Marlene Forte, Essence Atkins
Rated: Rated R for crude and sexual content, language and some drug use

Info: 
http://www.imdb.com/title/tt0068327/


General
Complete name                  : A Haunted House 2013 BRRip 720p x264 AAC - PRiSTiNE.mp4
Format                         : MPEG-4
Format profile                 : Base Media
File size                      : 508 MiB
Duration                       : 1h 26mn
Overall bit rate mode          : Variable
Overall bit rate               : 821 Kbps

Video
Format                         : AVC
Format/Info                    : Advanced Video Codec
Format profile                 : High 10@L4.1
Bit rate                       : 740 Kbps
Width                          : 1 280 pixels
Height                         : 688 pixels
Display aspect ratio           : 1.85:1
Frame rate mode                : Constant
Frame rate                     : 23.976 fps
Bit depth                      : 10 bits
Stream size                    : 457 MiB (90%)
Writing library                : x264 core 130 r2273 b3065e6

Audio
Format                         : AAC
Format/Info                    : Advanced Audio Codec
Bit rate mode                  : Variable
Bit rate                       : 79.0 Kbps
Channel(s)                     : 2 channels
Channel positions              : Front: L R
Sampling rate                  : 48.0 KHz / 24.0 KHz
Stream size                    : 48.8 MiB (10%)

Subtitle                       : Yes (English)
Source                         : 720p.BluRay.DTS.x264.RoSubbed-AXED (Thanks)

Screens:
 
http://www.ultraimg.com/images/1XuZP.jpg 
http://www.ultraimg.com/images/hu4Lt.jpg 
http://www.ultraimg.com/images/FW3EM.jpg 
http://www.ultraimg.com/images/eQi4z.jpg


----------------------------------------------------------------------------------------------------


Encoded using revolutionary 10bit encoding, which enables us to provide you more crispier 
and sharper images at small sizes, just make sure you follow our instructions without a fault.
Recommend to you to use latest version of VLC player. Install K-Lite Codec Pack or shark007 codecs
in case of any kind of problem in playback (For non-VLC Media Player users). Alternatively, install
Core AVC codecs, the fastest decoder that there is coupled with Community Center Codec Pack and play
on Windows Media Player Classic. Check sample to be sure.
Enjoy!

Encoder Notes:Looking For Early Access To Anything You Can Provide DVDScr, R5, DVDR, BluRay, Direct
Audio, Music Releases and Seedboxes. We require dedicated servers, so as to do more 
and fast releases of movies.
If You Got anything to offer please contact us at "prg@hush.com".

Face book Fan Page:   
http://www.fb.me/p2pdl